/* XPM */
static char *result[] = {
/* columns rows colors chars-per-pixel */
"64 64 16 1 ",
"  c black",
". c gray7",
"X c #1B1B1B",
"o c gray14",
"O c #621212",
"+ c #5D514D",
"@ c #B62C2C",
"# c #B25F22",
"$ c #827A70",
"% c #EB5050",
"& c #F69C3B",
"* c #AC9F8F",
"= c #C7BAAB",
"- c #EEC491",
"; c white",
": c None",
/* pixels */
"::::::::::::::::::::::::::::::::::::::::::::::::::::::::::::::::",
"::::::::::::::::::::::::::::::::::::::::::::::::::::::::::::::::",
"::::::::::::::::::::::::::::::::::::::::::::::::::::::::::::::::",
"::::::::::::::::::::::::::::::::::::::::::::::::::::::::::::::::",
"::::::::::::::::::::::::::::::::::::::::::::::::::::::::::::::::",
"::::::::::::::::::::::::::::::::::::::::::::::::::::::::::::::::",
"::::::::::::::::::::::::::::::::::::::::::::::::::::::::::::::::",
"::::::::::::::::::::::::::::::::::::::::::::::::::::::::::::::::",
"::::::::::::::::::::::::::::::::::::::::::::::::::::::::::::::::",
"::::::::::::::::::::::::::::::::::::::::::::::::::::::::::::::::",
"::::::::::::::::::::::::  ::::::::::::::::::::::::::::::::::::::",
"::::::::::::::::::     : # :::::::::::::::::::::::::::::::::::::",
":::::::::::::::::: ##&&  #& ::::::::::::::::::::::::::::::::::::",
":::::::::::::::::::  #&&& && :::::::::::::::::::::::::::::::::::",
"::::::::::::::::::     &&& & :::::::::::::::::::::::::::::::::::",
"::::::::::::::::: ##&&& && && ::::::::::::::::::::::::::::::::::",
":::::::::::::::: ##&&&&&#&&&& ::::::::::::::::::::::::::::::::::",
"::::::::::::::::     #&&##### ::::::::::::::::::::::::::::::::::",
"::::::::::::::::::  ######         :::::::::::::::::::::::::::::",
"::::::::::::::::: ######  +$$$$$$$+  :::::::::::::::::::::::::::",
":::::::::::::::::   ### ++$$$****$$$+ ::::::::::::::::::::::::::",
"::::::::::::::::::::   ++$$$*******$$+ :::::::::::::::::::::::::",
":::::::::::::::::::::: ++$$$********$$ :::::::::::::::::::::::::",
":::::::::::::::::     ..++$$$******$$$+ ::::::::::::::::::::::::",
"::::::::::::::::: OO@ OO......oooooo... ::::::::::::::::::::::::",
":::::::::::::::::: O@ O@@@@%%%%%%%%%%%% ::::::::::::::::::::::::",
"::::::::::::::::  OOO O@@@@@%%%%%%%%%%% ::::::::::::::::::::::::",
":::::::::::::::: @@@OO.O@@@@@@@@@@@@@@@ ::::::::::::::::::::::::",
"::::::::::::::::: @@@ +    ..........   ::::::::::::::::::::::::",
"::::::::::::::::::    +$$*+ - +++++++ - ::::::::::::::::::::::::",
"::::::::::::::::::::: $$**+ -  +++++  - ::::::::::::::::::::::::",
":::::::::::::::::::: +$**;+ -  $$$$$  - ::::::::::::::::::::::::",
":::::::::::::::::::: +$**;;;;;;;;;;;;;;; :::::::::::::::::::::::",
":::::::::::::::::::: +$**;;;;;;;;;;;;;;;;:::::::::::::::::::::::",
":::::::::::::::::::: +$**;;;;* ;;;;;;;;## ::::::::::::::::::::::",
"::::::::::::::::::::: +$**;;;;*    ;;;#&& ::::::::::::::::::::::",
":::::::::::::::::::::: +$**;;;;;;;;;;#&&& ::::::::::::::::::::::",
":::::::::::::::::::::::     O@@@@O@@@@    ::::::::::::::::::::::",
":::::::::::::::::::::::::X++ O@%  O@% ::::::::::::::::::::::::::",
"::::::::::::::::::::::::X+++$   **   + :::::::::::::::::::::::::",
"::::::::::::::::::::::::X+++$$$$***$++ :::::::::::::::::::::::::",
":::::::::::::::::::::::: ;;X$$$***$$+; :::::::::::::::::::::::::",
":::::::::::::::::::::::: ;;;X$***$$+;; :::::::::::::::::::::::::",
":::::::::::::::::::::::: ;;;X++++++ ;; :::::::::::::::::::::::::",
":::::::::::::::::::::::::  X$**$$**$  ::::::::::::::::::::::::::",
":::::::::::::::::::::::::: ++++  +++ :::::::::::::::::::::::::::",
":::::::::::::::::::::::::: $*= : $*= :::::::::::::::::::::::::::",
"::::::::::::::::::::::::::    ::     :::::::::::::::::::::::::::",
"::::::::::::::::::::::::::::::::::::::::::::::::::::::::::::::::",
"::::::::::::::::::::::::::::::::::::::::::::::::::::::::::::::::",
"::::::::::::::::::::::::::::::::::::::::::::::::::::::::::::::::",
"::::::::::::::::::::::::::::::::::::::::::::::::::::::::::::::::",
"::::::::::::::::::::::::::::::::::::::::::::::::::::::::::::::::",
"::::::::::::::::::::::::::::::::::::::::::::::::::::::::::::::::",
"::::::::::::::::::::::::::::::::::::::::::::::::::::::::::::::::",
"::::::::::::::::::::::::::::::::::::::::::::::::::::::::::::::::",
"::::::::::::::::::::::::::::::::::::::::::::::::::::::::::::::::",
"::::::::::::::::::::::::::::::::::::::::::::::::::::::::::::::::",
"::::::::::::::::::::::::::::::::::::::::::::::::::::::::::::::::",
"::::::::::::::::::::::::::::::::::::::::::::::::::::::::::::::::",
"::::::::::::::::::::::::::::::::::::::::::::::::::::::::::::::::",
"::::::::::::::::::::::::::::::::::::::::::::::::::::::::::::::::",
"::::::::::::::::::::::::::::::::::::::::::::::::::::::::::::::::",
"::::::::::::::::::::::::::::::::::::::::::::::::::::::::::::::::"
};
