/* XPM */
static char *result[] = {
/* columns rows colors chars-per-pixel */
"32 32 8 1 ",
"  c #181425",
". c #3A4466",
"X c #923710",
"o c #F77622",
"O c #FEAE34",
"+ c #FEE761",
"@ c #FFFBC8",
"# c #00FF00",
/* pixels */
"################################",
"################################",
"############XXXXXXXX############",
"############ooOOOOoo############",
"##########XoO+@@@@+OoX##########",
"##########oO++@@@@++OO##########",
"########XoO+++@@@@++@+OX########",
"########oO++++@@@@++@@+o########",
"######XoO+++OOOOOOO+@@+OoX######",
"######Xo+++OoooXXXoO+@++oX######",
"######Xo++OoooooooXoO+++oX######",
"######XoOOOoXXOOooXXoOOOoX######",
"###### XOOooXXOOooXXooOOX ######",
"###### XOOooXXoOooXXooOOX ######",
"###### XOOooXXooooXXooOOX ######",
"###### XoOoooXooooXoooOoX ######",
"########XoOOooXXXXooOOoX########",
"######## XoOoooXXoooOoX ########",
"##########XoOOOOOOOOoX##########",
"########## XoOOOOOOoX ##########",
"############XXXXXXXX############",
"############        ############",
"################################",
"################################",
"########................########",
"########................########",
"######....................######",
"######....................######",
"########................########",
"########................########",
"################################",
"################################"
};
