/* XPM */
static char *result[] = {
/* columns rows colors chars-per-pixel */
"32 32 6 1 ",
"  c #181425",
". c #92A1B9",
"X c #657392",
"o c #424C6E",
"O c #2A2F4E",
"+ c white",
/* pixels */
"                                ",
"                                ",
"                                ",
"                         OoooooO",
"                         oX..XXX",
"                         o....XX",
"                         o...XXo",
"                         oX.XXoo",
"                         oXXXXoo",
"                 OOOOOOO oXXXXoo",
"                 OoXXooOOoXXXXoo",
"                 OXXXXooOoXXXXoo",
"                 OXXXooOOoXXXXoo",
"         OOOOOOO OoXooOOOoXXXXoo",
"         OoXXooOOOooooOOOoXXXXoo",
"         OXXXXooOOooooOOOoXXXXoo",
"         OXXXooOOOooooOOOoXXXXoo",
"    OO   OoXooOOOOooooOOOoXXXXoo",
"   OOOOO OooooOOOOooooOOOoXXXXoo",
"   OooOO OooooOOOOooooOOOoXXXXoo",
"   OooO  OooooOOOOooooOOOoXXXXoo",
"   OOOO  OooooOOOOooooOOOoXXXXoo",
"    OO   OooooOOOOooooOOOoXXXXoo",
"    OO   OooooOOOOooooOOOoXXXXoo",
"    OO   OooooOOOOooooOOOoXXXXoo",
"    OO   OooooOOOOooooOOOoXXXXoo",
"    OO   OooooOOOOooooOOOoX.XXoo",
"    OO   OooooOOOOooooOOOo...XXo",
"    OO   OooooOOOooXooOOOo....XX",
"    OO   OOooOOOOooooOOOOoX..XXX",
"          OOOO   OOOOO   OoooooO",
"                                "
};
