/* XPM */
static char *result[] = {
/* columns rows colors chars-per-pixel */
"32 32 5 1 ",
"  c #6B7896",
". c #404A6B",
"X c #657392",
"o c #424C6E",
"O c white",
/* pixels */
"               Xo...............",
"               Xo...............",
"  XXXXXXXXXXXXXXoooooooooooooo..",
"  XXXXXXXXXXXXXXoooooooooooooo..",
"  XXXXXXXXXXXXXXoooooooooooooo..",
"  XXXXXXXXXXXXXXoooooooooooooo..",
"  XXXXXXXXXXXXXXoooooooooooooo..",
"  XXXXXXXXXXXXXXoooooooooooooo..",
"  XXXXXXXXXXXXXXoooooooooooooo..",
"  XXXXXXXXXXXXXXoooooooooooooo..",
"  XXXXXXXXXXXXXXoooooooooooooo..",
"  XXXXXXXXXXXXXXoooooooooooooo..",
"  XXXXXXXXXXXXXXoooooooooooooo..",
"  XXXXXXXXXXXXXXoooooooooooooo..",
"  XXXXXXXXXXXXXXoooooooooooooo..",
"XXXXXXXXXXXXXXXXoooooooooooooooo",
"ooooooooooooooooXXXXXXXXXXXXXXXX",
"..ooooooooooooooXXXXXXXXXXXXXX  ",
"..ooooooooooooooXXXXXXXXXXXXXX  ",
"..ooooooooooooooXXXXXXXXXXXXXX  ",
"..ooooooooooooooXXXXXXXXXXXXXX  ",
"..ooooooooooooooXXXXXXXXXXXXXX  ",
"..ooooooooooooooXXXXXXXXXXXXXX  ",
"..ooooooooooooooXXXXXXXXXXXXXX  ",
"..ooooooooooooooXXXXXXXXXXXXXX  ",
"..ooooooooooooooXXXXXXXXXXXXXX  ",
"..ooooooooooooooXXXXXXXXXXXXXX  ",
"..ooooooooooooooXXXXXXXXXXXXXX  ",
"..ooooooooooooooXXXXXXXXXXXXXX  ",
"..ooooooooooooooXXXXXXXXXXXXXX  ",
"...............oX               ",
"...............oX               "
};
