/* XPM */
static char *result[] = {
/* columns rows colors chars-per-pixel */
"32 32 8 1 ",
"  c #382121",
". c #A04345",
"X c #BC4D4F",
"o c #4B9A27",
"O c #D8B78F",
"+ c #FFD7A8",
"@ c white",
"# c #00FF00",
/* pixels */
"################################",
"################################",
"################################",
"################################",
"########                ########",
"#######  ................#######",
"######o .......XXXXXXXXX.#######",
"#####ooo..XX.XXXXX.......#######",
"#####ooo.XOOXOOXX...X... #######",
"##### oo.O@+O@OXX..XXX.. #######",
"#####   .O@+O@+XXXXXXXXX.#######",
"#####  ooO@+O@OXXXXXXXXX.#######",
"######oooXOOOOOXXXXXXXXX.#######",
"###### oo ...X..XXXXXXX. #######",
"######    .......X.....  #######",
"######   ...XXXX...#############",
"######  ..XOOOOOO.##############",
"####### .XO++++++O##############",
"#####   .XO++++++O##############",
"##### ...XO++++++O##############",
"#####....XOO++++OX##############",
"##### ....XOOOOOX.##############",
"#####   ...XXOOXX.##############",
"######  ..X....XX.##############",
"####### ....  ....##############",
"####### ....  ...###############",
"#######  ..##  .################",
"########  ###  #################",
"################################",
"################################",
"################################",
"################################"
};
