/* XPM */
static char *result[] = {
/* columns rows colors chars-per-pixel */
"32 32 193 2 ",
"   c black",
".  c #020204",
"X  c #030204",
"o  c #050408",
"O  c #141020",
"+  c #141120",
"@  c #151120",
"#  c #151221",
"$  c #161221",
"%  c #161123",
"&  c #161222",
"*  c #161223",
"=  c #171223",
"-  c #171324",
";  c #181324",
":  c #181424",
">  c #181425",
",  c #181526",
"<  c #191526",
"1  c #1A1627",
"2  c #1B182A",
"3  c #1B182B",
"4  c #1C192C",
"5  c #1C1A2C",
"6  c #1D1A2D",
"7  c #1D1B2D",
"8  c #1D1B2E",
"9  c #1F1D2F",
"0  c #1F1D30",
"q  c #201D30",
"w  c #201E30",
"e  c #201E31",
"r  c #211F31",
"t  c #211F32",
"y  c #212034",
"u  c #242234",
"i  c #252335",
"p  c #282536",
"a  c #292637",
"s  c #242338",
"d  c #2A2738",
"f  c #2B2839",
"g  c #2B2939",
"h  c #2A2F4E",
"j  c #2B304F",
"k  c #2D324F",
"l  c #3C3A4B",
"z  c #2C3151",
"x  c #2C3251",
"c  c #2D3251",
"v  c #2F3554",
"b  c #2F3555",
"n  c #313653",
"m  c #303554",
"M  c #303655",
"N  c #313655",
"B  c #323858",
"V  c #333958",
"C  c #343958",
"Z  c #343A58",
"A  c #343A59",
"S  c #353C5B",
"D  c #363D5C",
"F  c #373E5C",
"G  c #39405F",
"H  c #3A4160",
"J  c #3D4566",
"K  c #3D4666",
"L  c #3E4667",
"P  c #3E4767",
"I  c #3F496A",
"U  c #3F496B",
"Y  c #404969",
"T  c #414969",
"R  c #414B6D",
"E  c #424B6E",
"W  c #424C6E",
"Q  c #434C6E",
"!  c #434D6E",
"~  c #424C6F",
"^  c #434D6F",
"/  c #454E6D",
"(  c #454F70",
")  c #454F71",
"_  c #455071",
"`  c #455072",
"'  c #465072",
"]  c #485273",
"[  c #495475",
"{  c #4A5475",
"}  c #495476",
"|  c #4A5576",
" . c #4D5778",
".. c #4D5878",
"X. c #4D5879",
"o. c #4E597A",
"O. c #525D7D",
"+. c #55607C",
"@. c #57627F",
"#. c #576280",
"$. c #576380",
"%. c #596583",
"&. c #596584",
"*. c #596685",
"=. c #5A6684",
"-. c #5A6685",
";. c #5B6785",
":. c #5A6786",
">. c #5B6887",
",. c #5C6886",
"<. c #5D6986",
"1. c #5D6987",
"2. c #5D6A87",
"3. c #5C6988",
"4. c #5D6A89",
"5. c #5E6B8A",
"6. c #5E6B8B",
"7. c #5F6C8B",
"8. c #616D8A",
"9. c #606D8C",
"0. c #606D8D",
"q. c #616E8D",
"w. c #616F8E",
"e. c #626F8F",
"r. c #63708E",
"t. c #62708F",
"y. c #66718D",
"u. c #637190",
"i. c #647291",
"p. c #647292",
"a. c #657392",
"s. c #667392",
"d. c #657493",
"f. c #667492",
"g. c #667493",
"h. c #667594",
"j. c #677594",
"k. c #687695",
"l. c #697896",
"z. c #6A7896",
"x. c #6A7897",
"c. c #6A7997",
"v. c #6F7C99",
"b. c #6E7C9A",
"n. c #6E7D9A",
"m. c #707D9A",
"M. c #7B879F",
"N. c #7986A2",
"B. c #7D8AA2",
"V. c #7D8AA3",
"C. c #7E8AA2",
"Z. c #818EA6",
"A. c #8391AA",
"S. c #8391AB",
"D. c #8592A9",
"F. c #8492AB",
"G. c #8693AA",
"H. c #8593AD",
"J. c #8594AD",
"K. c #8695AE",
"L. c #8796AF",
"P. c #8896AF",
"I. c #8998B1",
"U. c #8A98B1",
"Y. c #8A99B2",
"T. c #8B99B2",
"R. c #8C9AB3",
"E. c #8D9CB5",
"W. c #8E9DB5",
"Q. c #8E9DB6",
"!. c #8F9EB6",
"~. c #8F9EB7",
"^. c #91A0B8",
"/. c #92A1B9",
"(. c #92A2BA",
"). c #98A6BD",
"_. c #9BA8BE",
"`. c #A3A9B7",
"'. c #9CA9C0",
"]. c #ABB2C2",
"[. c #B2BAC9",
"{. c #B4BBC9",
"}. c #B5BCCA",
"|. c #B3BCCE",
" X c #B9C2D3",
".X c #BAC3D4",
"XX c #BDC5D5",
"oX c #BDC6D6",
"OX c #C2CBDA",
"+X c #C3CBDA",
"@X c #C3CCDB",
"#X c #C4CDDC",
"$X c None",
/* pixels */
"  X $ $ .                     . $ $ .         . # > > > > > > > ",
"  X & & o . X X X X X X X X . o & & o . X X . o $ > > > > > > > ",
"$X$X> : @ O O O O O O O O O O + * * + O O O O + * - - - > > $X$X",
"$X$X> 1 a g g g g g g g g g g g f f g g g g g g f f g a 1 > $X$X",
"> > % p `.}.{.{.{.{.{.{.{.{.{.{.{.{.{.{.{.{.{.{.{.{.}.`.p % > > ",
"> 1 p l [.#X+X+X+X+X+X+X+X+X+X+X+X+X+X+X+X+X+X+X+X+X#X[.l p 1 > ",
"- a `.[._.).).).).).).).).).).).).).).).).).).).).).)._.[.`.a - ",
"= f }.#X).^././././././././././././././././././././.^.).#X}.f = ",
"= f }.@X).^././././././././././././././././././././.^.).@X}.f = ",
"- d ]..X'.).).).).).).).).).).).).).).).).).).).).).).'..X].d - ",
"- t y.N. X+XOXOXOXOXOXOXOXOXOXOXOXOXOXOXOXOXOXOXOXOX+X XN.y.t - ",
"- e ;.b.|.oXXXXXXXXXXXXXXXXXXXXXXXXXXXXXXXXXXXXXXXXXoX|.b.;.e - ",
"- e <.j.v.m.m.m.m.m.m.m.m.m.m.m.m.m.m.m.m.m.m.m.m.m.m.v.j.<.e - ",
"- w %.t.i.i.i.i.i.i.i.i.i.i.i.i.i.i.i.i.i.i.i.i.i.i.i.i.t.%.w - ",
": 6 Y } e.d.a.a.a.a.a.a.a.a.a.a.a.a.a.a.a.a.a.a.a.a.d.e.} Y 6 : ",
"; 8 / X.7.w.w.w.w.w.w.w.w.w.w.w.w.w.w.w.w.w.w.w.w.w.w.7.X./ 8 ; ",
"- u B.S. .) _ _ _ _ _ _ ' ' _ _ _ _ _ _ _ _ _ _ _ _ ) ..S.C.u - ",
"- i G.R.O.{ | | | | | { ' ' { | | | | | | | | | | | { O.L.Z.i - ",
"- i D./.T.U.U.U.U.U.U.J.s.a.H.U.U.U.U.U.U.U.U.U.U.U.U.K.b.8.r - ",
"- i D.(.Q.W.W.W.W.W.Q.I.f.g.E./.Q.W.W.W.W.W.W.W.W.W.Q.I.z.,.e - ",
"- i G.~.n.z.z.z.z.z.x.f.} o.Y.Q.b.z.z.z.z.z.z.z.z.z.z.l.h.1.e - ",
"- u M.F.k.p.a.a.a.a.a.q.Q ] I.W.z.i.a.a.a.a.a.a.a.a.a.i.9.@.q - ",
"> 3 n H 9.g.d.d.d.d.g.7.B F P.!.c.a.d.d.d.d.d.d.d.d.g.9.D k 2 > ",
"> 2 k S *.7.7.7.7.7.7.&.v C V.A.r.5.7.7.7.7.7.7.7.7.7.*.S k 2 > ",
"- q #.-.S M M M M M M v h j Z A N M M M M M M M M M M S :.$.w - ",
"- e 2.0.D m M M M M M M M M M M M M M m c c m M M M m S 4.=.w - ",
"- e <.a.9.7.7.7.7.7.7.7.7.7.7.7.7.7.7.>.! ! >.7.7.7.7.3.[ T 7 : ",
"- e <.a.t.e.e.e.e.e.e.e.e.e.e.e.e.e.t.6.! ^ w.a.t.e.t.6.' J 6 : ",
"- e 2.u.} ' ' ' ' ' ' ' ' ' ' ' ' ' ' ! b V 7.t.[ ' ' ` ^ L 6 : ",
"- 0 +.=.( E W W W W W W W W W W W W W I z M 7.e.' R W R P G 4 : ",
"> < 9 s P W W W W W W W W W W W W W W U x M 7.e.' W W P y 4 , > ",
"> > - 4 K ~ W W W W W W W W W W W W W U x M 7.e.' W ~ K 5 - > > "
};
